<?xml version="1.0" encoding="UTF-8"?>
<svg version="1.1" xmlns="http://www.w3.org/2000/svg" width="768" height="768">
<path d="M0 0 C7.0729678 5.34584775 11.18819993 13.12844369 15.6015625 20.65234375 C16.26051514 21.76351562 16.91946777 22.8746875 17.59838867 24.01953125 C19.52283512 27.26822434 21.43825495 30.52208151 23.3515625 33.77734375 C24.30041714 35.38432963 25.24959194 36.99112656 26.19921875 38.59765625 C28.59243602 42.65223847 30.97320852 46.71403054 33.3515625 50.77734375 C38.57807148 59.70018329 43.83476429 68.60293256 49.1640625 77.46484375 C56.50925857 89.67914039 63.75994048 101.94923518 70.97265625 114.2421875 C75.33262463 121.67251967 79.72433287 129.08183369 84.1640625 136.46484375 C92.03891505 149.56399487 99.81112148 162.72318639 107.53125 175.9140625 C107.88949356 176.52614059 108.24773712 177.13821869 108.61683655 177.7688446 C108.97764816 178.38532364 109.33845978 179.00180267 109.71020508 179.63696289 C110.44481855 180.89209316 111.17943771 182.1472201 111.9140625 183.40234375 C112.2793808 184.02656219 112.6446991 184.65078064 113.02108765 185.29391479 C117.42324154 192.81350466 121.85125151 200.31593136 126.3515625 207.77734375 C131.22923036 215.86440517 136.01884989 224.00164275 140.7890625 232.15234375 C141.33696442 233.0883844 141.33696442 233.0883844 141.89593506 234.04333496 C142.62922039 235.29609664 143.36249682 236.54886353 144.09576416 237.80163574 C144.63423981 238.72160339 144.63423981 238.72160339 145.18359375 239.66015625 C145.54048279 240.2699231 145.89737183 240.87968994 146.26507568 241.50793457 C153.3867049 253.67280573 160.55607512 265.80803741 167.83154297 277.8815918 C175.53572694 290.67061659 183.04835491 303.56022791 190.4765625 316.51123047 C193.59229739 321.93861345 196.72264512 327.35755367 199.8515625 332.77734375 C201.10163295 334.94396977 202.35163295 337.11063644 203.6015625 339.27734375 C204.5296875 340.88609375 204.5296875 340.88609375 205.4765625 342.52734375 C207.3515625 345.77734375 209.2265625 349.02734375 211.1015625 352.27734375 C211.72071533 353.35048828 212.33986816 354.42363281 212.9777832 355.52929688 C214.22390219 357.68934468 215.46983411 359.84950042 216.71557617 362.00976562 C219.89840659 367.52861454 223.08477161 373.04537377 226.27734375 378.55859375 C237.16767894 397.3780841 237.16767894 397.3780841 242.2890625 406.71484375 C246.74250688 414.8263398 251.47045526 422.76958888 256.20864868 430.71691895 C261.43934315 439.4944971 266.53927848 448.33674029 271.53808594 457.2487793 C276.70426465 466.44570399 282.0231841 475.55100776 287.35546875 484.65234375 C287.87254395 485.53792969 288.38961914 486.42351562 288.92236328 487.3359375 C289.81025857 488.85267014 290.7034885 490.36630912 291.60498047 491.875 C295.44250222 498.37377841 296.44930752 504.4094713 294.92578125 511.859375 C292.96378492 517.96202615 289.01721459 523.51555842 283.515625 526.91015625 C277.04383641 529.82104806 270.76075534 529.92237777 263.81270981 529.90877151 C262.35694335 529.91185047 262.35694335 529.91185047 260.87176746 529.91499162 C257.60035107 529.92067283 254.32897663 529.91920298 251.05755615 529.91778564 C248.69614401 529.92036863 246.3347323 529.9233816 243.9733212 529.92678905 C238.15160025 529.93402182 232.32988781 529.93656205 226.50816342 529.9371181 C219.53579753 529.93803184 212.56344012 529.94469967 205.59107788 529.95146492 C188.73958001 529.96752561 171.88808304 529.97342811 155.03657889 529.97821367 C147.06570825 529.98054937 139.09483832 529.98415197 131.12396824 529.98790905 C103.84179526 530.00074409 76.55962268 530.01146374 49.27744675 530.01491165 C47.56481888 530.01513328 45.85219102 530.01535507 44.13956316 530.015577 C42.42278986 530.01579764 40.70601657 530.01601813 38.98924327 530.01623845 C35.54507494 530.01668101 32.10090661 530.01712812 28.65673828 530.01757812 C27.80278468 530.01768752 26.94883108 530.01779691 26.0690001 530.01790961 C-1.62622551 530.02154099 -29.32142495 530.03746433 -57.01664053 530.06076849 C-86.2941316 530.08535904 -115.57160771 530.09908411 -144.84910941 530.10027957 C-148.06238795 530.10045103 -151.27566648 530.10066645 -154.48894501 530.100914 C-155.67575388 530.10099765 -155.67575388 530.10099765 -156.88653869 530.101083 C-169.62414215 530.10223406 -182.36171877 530.11326068 -195.09931316 530.12780106 C-207.89947879 530.14216034 -220.69960999 530.14540624 -233.49978146 530.13736108 C-240.43547507 530.13329499 -247.37108623 530.13402801 -254.30676842 530.14841843 C-260.65404345 530.16111024 -267.00115975 530.16000133 -273.34843442 530.14782771 C-275.64654714 530.14586254 -277.94467093 530.1489868 -280.24276808 530.15767208 C-283.36411218 530.16872326 -286.48489198 530.16130495 -289.60622025 530.14928055 C-290.50043782 530.15687574 -291.3946554 530.16447093 -292.31597048 530.17229629 C-300.98346092 530.10011189 -309.26888471 527.94148307 -315.6484375 521.77734375 C-318.39711134 518.13472432 -320.21350876 514.34409553 -320.6484375 509.77734375 C-320.71160156 509.13152344 -320.77476562 508.48570312 -320.83984375 507.8203125 C-321.49200825 495.80786321 -313.98059989 485.96682162 -308.03808594 476.10107422 C-305.72052712 472.22571849 -303.46695459 468.31373955 -301.2109375 464.40234375 C-300.28130345 462.79423993 -299.35161573 461.18616714 -298.421875 459.578125 C-297.49737373 457.97787735 -296.57289428 456.3776171 -295.6484375 454.77734375 C-289.75357307 444.57702257 -283.84080302 434.38757805 -277.8984375 424.21484375 C-272.22483585 414.50210157 -266.59658909 404.76384301 -260.98461914 395.01538086 C-257.46959206 388.91508429 -253.92503664 382.83430746 -250.3359375 376.77734375 C-247.09650572 371.30586446 -243.9654829 365.78468197 -240.8984375 360.21484375 C-236.47750605 352.18872191 -231.87944753 344.27399178 -227.24536133 336.36938477 C-222.98256416 329.08894129 -218.77960397 321.77609176 -214.60604858 314.44430542 C-208.52309731 303.75878724 -202.35366873 293.12998353 -196.07421875 282.55859375 C-192.36309729 276.30828391 -188.69308741 270.03412007 -185.02215576 263.76016235 C-179.75211609 254.75420814 -174.46835807 245.75900197 -169.078125 236.82421875 C-165.59270217 231.03466379 -162.15524432 225.21641481 -158.7109375 219.40234375 C-158.35877167 218.80790466 -158.00660583 218.21346558 -157.64376831 217.60101318 C-153.25168056 210.18599679 -148.8695295 202.76525772 -144.50708008 195.33276367 C-141.34335393 189.94707474 -138.15710416 184.57489824 -134.96899414 179.20361328 C-128.02346659 167.50161629 -121.12815613 155.77177531 -114.28125 144.01171875 C-101.43155944 121.94516015 -88.56293101 99.88267507 -75.37426758 78.0168457 C-71.30331232 71.24218902 -67.32676082 64.4118595 -63.3359375 57.58984375 C-57.38375632 47.41599654 -51.3912154 37.26928923 -45.296875 27.1796875 C-43.55105536 24.28837183 -41.82786712 21.38556206 -40.125 18.46875 C-30.68257512 2.33481261 -19.97552053 -10.19369347 0 0 Z " fill="#E5E5DA" transform="translate(396.6484375,87.22265625)"/>
<path d="M0 0 C0 0.33 0 0.66 0 1 C-0.92071289 1.09337646 -1.84142578 1.18675293 -2.79003906 1.28295898 C-6.09424563 2.64045867 -6.09424563 2.64045867 -7.02722168 5.17434692 C-7.93238529 8.25438933 -8.66810708 11.33754018 -9.359375 14.47265625 C-9.63469055 15.62487167 -9.9100061 16.7770871 -10.19366455 17.96421814 C-11.0702878 21.65837395 -11.91040424 25.35977218 -12.75 29.0625 C-13.32966099 31.53115672 -13.91166526 33.99926447 -14.49609375 36.46679688 C-16.41896989 44.62409366 -18.29582622 52.79107998 -20.09838867 60.97583008 C-20.75312953 63.9332513 -21.45461856 66.86669821 -22.25390625 69.7890625 C-22.46853516 70.58570313 -22.68316406 71.38234375 -22.90429688 72.203125 C-23.34534506 73.82597293 -23.78807068 75.44836585 -24.23242188 77.0703125 C-25.2115924 80.71483842 -26.09995979 84.2781648 -26.58984375 88.0234375 C-27 91 -27 91 -28 92 C-28.37086181 93.99338221 -28.69737711 95.99512332 -29 98 C-29.88888889 103.88888889 -29.88888889 103.88888889 -31 105 C-31.33507776 106.61624645 -31.62340784 108.24225223 -31.890625 109.87109375 C-32.90580664 115.6840388 -34.2732348 121.3521157 -35.75 127.0625 C-38.1774628 136.60568735 -40.46599505 146.1723985 -42.64355469 155.77563477 C-43.82558187 160.96922062 -45.0333131 166.15439486 -46.28833008 171.33081055 C-50.60007744 189.1181005 -54.60213392 206.96723519 -58.54907227 224.83862305 C-59.38759862 228.63141191 -60.23065193 232.42317327 -61.07421875 236.21484375 C-61.3242717 237.35348373 -61.57432465 238.49212372 -61.83195496 239.66526794 C-63.13264205 245.50057634 -64.58096487 251.22296188 -66.39778137 256.92018127 C-67.11285347 259.20875763 -67.11285347 259.20875763 -67.5 262.5 C-69.21016949 274.47118644 -69.21016949 274.47118644 -74 278.5625 C-77 280 -77 280 -80 281 C-80.70294753 282.31456723 -81.36596944 283.65084194 -82 285 C-83.4453125 286.67578125 -83.4453125 286.67578125 -85.125 288.3125 C-85.66382813 288.84488281 -86.20265625 289.37726563 -86.7578125 289.92578125 C-88.70881061 291.73062445 -90.69715865 293.46554454 -92.7109375 295.19921875 C-97.18555997 299.09732122 -101.34354902 303.26783953 -105.5 307.5 C-110.26982872 312.35671085 -115.09340337 317.04032672 -120.25439453 321.48144531 C-122.32165444 323.27981687 -124.26880531 325.16948601 -126.1875 327.125 C-127.10595703 328.05699219 -127.10595703 328.05699219 -128.04296875 329.0078125 C-128.68878906 329.66523438 -129.33460938 330.32265625 -130 331 C-133.52951965 334.58107373 -137.1688919 338.01320154 -140.88720703 341.39550781 C-148.39815038 348.28365372 -155.60587868 355.46038305 -162.8046875 362.671875 C-164.1816684 364.04817991 -165.55879752 365.42433655 -166.93606567 366.800354 C-169.79656555 369.65939329 -172.65528402 372.5201982 -175.51269531 375.38232422 C-179.15704554 379.03239797 -182.80590534 382.67792555 -186.45609856 386.322155 C-189.29076647 389.15319585 -192.12303186 391.98663066 -194.95459366 394.82077789 C-196.29894986 396.16579603 -197.64403498 397.51008604 -198.98989487 398.85359955 C-208.06948722 407.89990827 -208.06948722 407.89990827 -216.64352417 417.42114258 C-218.54418108 419.63339451 -220.585984 421.68162279 -222.6640625 423.7265625 C-223.47617188 424.5309375 -224.28828125 425.3353125 -225.125 426.1640625 C-225.95 426.97617187 -226.775 427.78828125 -227.625 428.625 C-233.98453604 434.7971804 -233.98453604 434.7971804 -239.875 441.40625 C-241.62658236 443.54421083 -243.21985198 445.18242033 -245.375 446.875 C-248.54753086 449.51877571 -251.17360855 452.37740144 -253.83984375 455.5234375 C-255.58897746 457.52877344 -257.36834395 459.47702568 -259.19140625 461.4140625 C-259.76552246 462.02443359 -260.33963867 462.63480469 -260.93115234 463.26367188 C-262.07794352 464.47900909 -263.22787696 465.69139107 -264.38134766 466.90039062 C-267.67348688 470.39859666 -270.39558012 473.94222081 -273 478 C-276.70511643 482.00553128 -280.82522688 485.49896548 -285 489 C-282.00617156 487.66130947 -279.97944329 486.20221044 -277.71484375 483.83984375 C-277.10705078 483.21529297 -276.49925781 482.59074219 -275.87304688 481.94726562 C-275.23431641 481.28404297 -274.59558594 480.62082031 -273.9375 479.9375 C-268.64344438 474.53025757 -263.28848066 469.59209652 -257.34375 464.90625 C-254.64352803 462.71006946 -252.28157393 460.31156238 -249.87109375 457.80859375 C-247.55193412 455.56690083 -245.07791798 453.58104529 -242.5625 451.5625 C-238.39674999 448.21055088 -234.59555812 444.70828511 -230.87109375 440.87890625 C-228.48932834 438.4871961 -225.95675867 436.3126285 -223.3984375 434.11328125 C-220.20853733 431.30263631 -217.10727316 428.40137691 -214 425.5 C-209.72083553 421.50798629 -205.41934237 417.56208774 -200.98828125 413.73828125 C-198.45947072 411.52743511 -195.98127436 409.26403557 -193.5 407 C-189.73649479 403.56735239 -185.93870649 400.1844499 -182.09375 396.84375 C-179.53580973 394.59123543 -177.0182102 392.29682908 -174.5 390 C-170.73649479 386.56735239 -166.93870649 383.1844499 -163.09375 379.84375 C-160.53580973 377.59123543 -158.0182102 375.29682908 -155.5 373 C-151.71337002 369.54671847 -147.8952368 366.13900949 -144.02734375 362.77734375 C-140.79598522 359.94445718 -137.61531919 357.05556133 -134.42578125 354.17578125 C-132.36297212 352.32556437 -130.2828763 350.50055191 -128.1875 348.6875 C-124.60351089 345.56689534 -121.11150147 342.3534098 -117.625 339.125 C-109.81637327 331.90073043 -102.05121849 324.74052246 -93.65234375 318.19921875 C-91.63288184 316.52476064 -89.75781026 314.84088843 -87.87890625 313.01953125 C-87.3482959 312.5095459 -86.81768555 311.99956055 -86.27099609 311.47412109 C-85.23394872 310.46777263 -84.20890674 309.44886742 -83.19775391 308.41650391 C-81.0117432 306.30184887 -79.6868443 305.02215627 -76.578125 304.921875 C-73.15258275 306.35437448 -70.13064187 308.2483572 -67.0625 310.3125 C-66.46759766 310.70373047 -65.87269531 311.09496094 -65.25976562 311.49804688 C-63.50089745 312.65716983 -61.74970359 313.82710003 -60 315 C-58.8530164 315.76455073 -57.70589141 316.52888939 -56.55859375 317.29296875 C-55.71425781 317.85628906 -54.86992187 318.41960937 -54 319 C-54.66 319.33 -55.32 319.66 -56 320 C-57.175625 319.2265625 -57.175625 319.2265625 -58.375 318.4375 C-59.674375 317.7259375 -59.674375 317.7259375 -61 317 C-64.69163537 318.28851513 -67.46981911 320.89713052 -70.4375 323.375 C-73.93378052 326.28289395 -77.44008313 329.17015683 -81 332 C-80.46724215 336.28295527 -77.81063425 339.13680152 -75.1875 342.375 C-74.69975098 342.98641846 -74.21200195 343.59783691 -73.70947266 344.2277832 C-69.21117589 349.82666611 -64.53549223 355.26933296 -59.8359375 360.69921875 C-57.33827706 363.59146616 -54.90745357 366.53196609 -52.5 369.5 C-49.1218112 373.65730261 -45.67745222 377.74918649 -42.1875 381.8125 C-41.68162354 382.40160156 -41.17574707 382.99070312 -40.65454102 383.59765625 C-38.09426465 386.57500403 -35.5270048 389.54612558 -32.953125 392.51171875 C-27.51105691 398.79820018 -22.24260096 405.17147002 -17.14868164 411.7434082 C-13.35610703 416.61062507 -9.37765469 421.29639254 -5.33984375 425.9609375 C-1.58791732 430.29757974 2.05153739 434.71425999 5.6640625 439.16796875 C8.35197046 442.42672004 11.11048372 445.61881752 13.875 448.8125 C18.38405792 454.0303181 22.6948212 459.36842749 26.9230957 464.81518555 C31.34459511 470.49088702 35.990916 475.96057258 40.66357422 481.4296875 C46.75656953 488.58901264 52.71214648 495.86308181 58.6484375 503.15234375 C60.32477595 505.18232835 62.01281075 507.19363047 63.7265625 509.19140625 C69.4959356 515.9183599 74.91550519 522.73019223 80 530 C79.67 530.66 79.34 531.32 79 532 C31.2700858 532.13733657 -16.45980749 532.24305973 -64.18988033 532.30639198 C-69.82499216 532.31389621 -75.4601036 532.32166214 -81.09521484 532.32958984 C-82.21706289 532.33116371 -83.33891094 532.33273757 -84.49475439 532.33435912 C-102.65899859 532.36046618 -120.82312884 532.40777323 -138.98730545 532.46291678 C-157.62577116 532.51902822 -176.2641772 532.5523532 -194.90272391 532.56453097 C-206.40353005 532.57276321 -217.9040141 532.59876277 -229.4047211 532.6474988 C-237.29145908 532.67921738 -245.17803059 532.68879991 -253.06482773 532.68100826 C-257.61503622 532.67716564 -262.16468195 532.68305095 -266.71479034 532.71523285 C-270.88399812 532.74450495 -275.05226654 532.74585905 -279.22151823 532.72539337 C-280.7264158 532.72286533 -282.23137279 532.73041584 -283.736154 532.74929909 C-292.74388295 532.85572485 -299.93199879 532.12704427 -307 526 C-310.21334832 522.08570331 -312.62408381 518.1375212 -313 513 C-313.0928125 512.03320312 -313.0928125 512.03320312 -313.1875 511.046875 C-313.85930757 499.0383147 -306.32872324 489.18376821 -300.38964844 479.32373047 C-298.07208962 475.44837474 -295.81851709 471.5363958 -293.5625 467.625 C-292.63286595 466.01689618 -291.70317823 464.40882339 -290.7734375 462.80078125 C-289.84893623 461.2005336 -288.92445678 459.60027335 -288 458 C-282.10513557 447.79967882 -276.19236552 437.6102343 -270.25 427.4375 C-264.57639835 417.72475782 -258.94815159 407.98649926 -253.33618164 398.23803711 C-249.82115456 392.13774054 -246.27659914 386.05696371 -242.6875 380 C-239.44806822 374.52852071 -236.3170454 369.00733822 -233.25 363.4375 C-228.82906855 355.41137816 -224.23101003 347.49664803 -219.59692383 339.59204102 C-215.33412666 332.31159754 -211.13116647 324.99874801 -206.95761108 317.66696167 C-200.87465981 306.98144349 -194.70523123 296.35263978 -188.42578125 285.78125 C-184.71465979 279.53094016 -181.04464991 273.25677632 -177.37371826 266.9828186 C-172.10367859 257.97686439 -166.81992057 248.98165822 -161.4296875 240.046875 C-157.94426467 234.25732004 -154.50680682 228.43907106 -151.0625 222.625 C-150.71033417 222.03056091 -150.35816833 221.43612183 -149.99533081 220.82366943 C-145.60324306 213.40865304 -141.221092 205.98791397 -136.85864258 198.55541992 C-133.69491643 193.16973099 -130.50866666 187.79755449 -127.32055664 182.42626953 C-120.37502909 170.72427254 -113.47971863 158.99443156 -106.6328125 147.234375 C-93.78312194 125.1678164 -80.91449351 103.10533132 -67.72583008 81.23950195 C-63.65487482 74.46484527 -59.67832332 67.63451575 -55.6875 60.8125 C-49.73531882 50.63865279 -43.7427779 40.49194548 -37.6484375 30.40234375 C-35.90261786 27.51102808 -34.17942962 24.60821831 -32.4765625 21.69140625 C-23.86829823 6.98276959 -18.17711249 -1.09062675 0 0 Z " fill="#71B0D5" transform="translate(389,84)"/>
<path d="M0 0 C0 0.33 0 0.66 0 1 C-0.92071289 1.09337646 -1.84142578 1.18675293 -2.79003906 1.28295898 C-6.09424563 2.64045867 -6.09424563 2.64045867 -7.02722168 5.17434692 C-7.93238529 8.25438933 -8.66810708 11.33754018 -9.359375 14.47265625 C-9.63469055 15.62487167 -9.9100061 16.7770871 -10.19366455 17.96421814 C-11.0702878 21.65837395 -11.91040424 25.35977218 -12.75 29.0625 C-13.32966099 31.53115672 -13.91166526 33.99926447 -14.49609375 36.46679688 C-16.41896989 44.62409366 -18.29582622 52.79107998 -20.09838867 60.97583008 C-20.75312953 63.9332513 -21.45461856 66.86669821 -22.25390625 69.7890625 C-22.46853516 70.58570313 -22.68316406 71.38234375 -22.90429688 72.203125 C-23.34534506 73.82597293 -23.78807068 75.44836585 -24.23242188 77.0703125 C-25.2115924 80.71483842 -26.09995979 84.2781648 -26.58984375 88.0234375 C-27 91 -27 91 -28 92 C-28.37086181 93.99338221 -28.69737711 95.99512332 -29 98 C-29.88888889 103.88888889 -29.88888889 103.88888889 -31 105 C-31.33507776 106.61624645 -31.62340784 108.24225223 -31.890625 109.87109375 C-32.90580664 115.6840388 -34.2732348 121.3521157 -35.75 127.0625 C-38.1774628 136.60568735 -40.46599505 146.1723985 -42.64355469 155.77563477 C-43.82558187 160.96922062 -45.0333131 166.15439486 -46.28833008 171.33081055 C-50.60007744 189.1181005 -54.60213392 206.96723519 -58.54907227 224.83862305 C-59.38759862 228.63141191 -60.23065193 232.42317327 -61.07421875 236.21484375 C-61.3242717 237.35348373 -61.57432465 238.49212372 -61.83195496 239.66526794 C-63.13264205 245.50057634 -64.58096487 251.22296188 -66.39778137 256.92018127 C-67.11285347 259.20875763 -67.11285347 259.20875763 -67.5 262.5 C-69.21016949 274.47118644 -69.21016949 274.47118644 -74 278.5625 C-77 280 -77 280 -80 281 C-80.70294753 282.31456723 -81.36596944 283.65084194 -82 285 C-83.4453125 286.67578125 -83.4453125 286.67578125 -85.125 288.3125 C-85.66382813 288.84488281 -86.20265625 289.37726563 -86.7578125 289.92578125 C-88.70881061 291.73062445 -90.69715865 293.46554454 -92.7109375 295.19921875 C-97.18555997 299.09732122 -101.34354902 303.26783953 -105.5 307.5 C-110.26982872 312.35671085 -115.09340337 317.04032672 -120.25439453 321.48144531 C-122.32165444 323.27981687 -124.26880531 325.16948601 -126.1875 327.125 C-127.10595703 328.05699219 -127.10595703 328.05699219 -128.04296875 329.0078125 C-128.68878906 329.66523438 -129.33460938 330.32265625 -130 331 C-133.52951965 334.58107373 -137.1688919 338.01320154 -140.88720703 341.39550781 C-148.39815038 348.28365372 -155.60587868 355.46038305 -162.8046875 362.671875 C-164.1816684 364.04817991 -165.55879752 365.42433655 -166.93606567 366.800354 C-169.79656555 369.65939329 -172.65528402 372.5201982 -175.51269531 375.38232422 C-179.15704554 379.03239797 -182.80590534 382.67792555 -186.45609856 386.322155 C-189.29076647 389.15319585 -192.12303186 391.98663066 -194.95459366 394.82077789 C-196.29894986 396.16579603 -197.64403498 397.51008604 -198.98989487 398.85359955 C-208.06948722 407.89990827 -208.06948722 407.89990827 -216.64352417 417.42114258 C-218.54418108 419.63339451 -220.585984 421.68162279 -222.6640625 423.7265625 C-223.47617188 424.5309375 -224.28828125 425.3353125 -225.125 426.1640625 C-225.95 426.97617187 -226.775 427.78828125 -227.625 428.625 C-233.98453604 434.7971804 -233.98453604 434.7971804 -239.875 441.40625 C-241.62658236 443.54421083 -243.21985198 445.18242033 -245.375 446.875 C-248.54753086 449.51877571 -251.17360855 452.37740144 -253.83984375 455.5234375 C-255.58897746 457.52877344 -257.36834395 459.47702568 -259.19140625 461.4140625 C-259.76552246 462.02443359 -260.33963867 462.63480469 -260.93115234 463.26367188 C-262.07794352 464.47900909 -263.22787696 465.69139107 -264.38134766 466.90039062 C-267.67348688 470.39859666 -270.39558012 473.94222081 -273 478 C-276.22404689 481.4854561 -279.71559698 484.46095374 -283.44921875 487.375 C-285.15938751 488.93565696 -285.15938751 488.93565696 -285.76171875 491.2890625 C-287.61223748 495.34035586 -290.73431748 497.5759967 -294.125 500.375 C-294.80135498 500.94790771 -295.47770996 501.52081543 -296.17456055 502.11108398 C-298.1093476 503.74931989 -300.05288951 505.37644496 -302 507 C-303.60910499 508.34829492 -305.21462767 509.70091193 -306.8125 511.0625 C-307.39644531 511.54847656 -307.98039062 512.03445313 -308.58203125 512.53515625 C-310.20367127 514.21040421 -311.06389013 515.87662882 -312 518 C-314.9716706 506.48477641 -311.46379821 498.11016685 -305.70092773 488.20166016 C-303.94715308 485.23227398 -302.16901564 482.27783162 -300.38964844 479.32373047 C-298.07208962 475.44837474 -295.81851709 471.5363958 -293.5625 467.625 C-292.63286595 466.01689618 -291.70317823 464.40882339 -290.7734375 462.80078125 C-289.84893623 461.2005336 -288.92445678 459.60027335 -288 458 C-282.10513557 447.79967882 -276.19236552 437.6102343 -270.25 427.4375 C-264.57639835 417.72475782 -258.94815159 407.98649926 -253.33618164 398.23803711 C-249.82115456 392.13774054 -246.27659914 386.05696371 -242.6875 380 C-239.44806822 374.52852071 -236.3170454 369.00733822 -233.25 363.4375 C-228.82906855 355.41137816 -224.23101003 347.49664803 -219.59692383 339.59204102 C-215.33412666 332.31159754 -211.13116647 324.99874801 -206.95761108 317.66696167 C-200.87465981 306.98144349 -194.70523123 296.35263978 -188.42578125 285.78125 C-184.71465979 279.53094016 -181.04464991 273.25677632 -177.37371826 266.9828186 C-172.10367859 257.97686439 -166.81992057 248.98165822 -161.4296875 240.046875 C-157.94426467 234.25732004 -154.50680682 228.43907106 -151.0625 222.625 C-150.71033417 222.03056091 -150.35816833 221.43612183 -149.99533081 220.82366943 C-145.60324306 213.40865304 -141.221092 205.98791397 -136.85864258 198.55541992 C-133.69491643 193.16973099 -130.50866666 187.79755449 -127.32055664 182.42626953 C-120.37502909 170.72427254 -113.47971863 158.99443156 -106.6328125 147.234375 C-93.78312194 125.1678164 -80.91449351 103.10533132 -67.72583008 81.23950195 C-63.65487482 74.46484527 -59.67832332 67.63451575 -55.6875 60.8125 C-49.73531882 50.63865279 -43.7427779 40.49194548 -37.6484375 30.40234375 C-35.90261786 27.51102808 -34.17942962 24.60821831 -32.4765625 21.69140625 C-23.86829823 6.98276959 -18.17711249 -1.09062675 0 0 Z " fill="#ACB3F9" transform="translate(389,84)"/>
<path d="M0 0 C7.61862418 2.94914484 14.86891998 6.29754466 21.875 10.5 C22.60203125 10.93159424 23.3290625 11.36318848 24.078125 11.80786133 C30.24852548 15.49522842 36.31414079 19.34140274 42.37768555 23.20092773 C55.82142066 31.72879989 69.56272873 39.77652588 83.25390625 47.8984375 C83.95887741 48.3167131 84.66384857 48.73498871 85.3901825 49.16593933 C88.84187285 51.21361242 92.29440551 53.25983532 95.7487793 55.30297852 C102.92217573 59.55000679 110.04980781 63.8593171 117.14111328 68.24243164 C120.75265817 70.46271445 124.39870431 72.6174697 128.0625 74.75 C134.295388 78.39731977 140.49985474 82.08896664 146.6875 85.8125 C153.81182958 90.09955408 160.96019727 94.3434633 168.125 98.5625 C176.40691366 103.4424472 184.62897823 108.41123479 192.8203125 113.44140625 C197.4144425 116.26048325 202.03707263 119.03080136 206.6652832 121.79345703 C210.67967471 124.19399296 214.65655884 126.64888282 218.625 129.125 C223.94281384 132.41356218 229.37911323 135.39779195 234.8984375 138.33203125 C237.89947052 139.94593692 240.86712709 141.59920562 243.8125 143.3125 C244.62332031 143.78300781 245.43414063 144.25351562 246.26953125 144.73828125 C246.84058594 145.15464844 247.41164063 145.57101562 248 146 C248 146.66 248 147.32 248 148 C248.66 148.226875 249.32 148.45375 250 148.6875 C252.520913 149.79039944 254.57896364 150.95445706 256.875 152.4375 C260.46720338 154.74579799 264.03343712 156.42990219 268 158 C268 158.66 268 159.32 268 160 C269.5159375 160.3403125 269.5159375 160.3403125 271.0625 160.6875 C274.57667892 161.68855097 277.04296168 163.37640328 279.953125 165.59765625 C282.34960578 167.23951999 284.8154929 168.43673175 287.4375 169.6875 C294.70259853 173.21522037 301.40123573 177.52949608 308.20214844 181.86181641 C313.10113135 184.96326376 318.09011978 187.91646447 323.1328125 190.77734375 C324.20273437 191.38707031 325.27265625 191.99679687 326.375 192.625 C327.35210938 193.17414063 328.32921875 193.72328125 329.3359375 194.2890625 C331.95156332 195.96889257 333.8504363 197.77334224 336 200 C340.83377798 203.06758987 345.60425716 205.1067569 351 207 C351 207.66 351 208.32 351 209 C352.32 209.66 353.64 210.32 355 211 C354.67 211.99 354.34 212.98 354 214 C347.63342436 217.09275786 340.76728728 217.43044761 333.82076836 217.36914349 C332.35230351 217.37433579 332.35230351 217.37433579 330.85417271 217.37963298 C327.58401182 217.38755392 324.31429686 217.37413138 321.04415894 217.36076355 C318.67201672 217.36207225 316.29987493 217.36469985 313.92773545 217.36853105 C308.7757319 217.37383631 303.62382232 217.36985278 298.47183418 217.35761642 C290.81109249 217.3394723 283.15041619 217.33861263 275.48965693 217.34124239 C262.60156328 217.3451796 249.71351584 217.33517695 236.82543564 217.31719017 C224.06726731 217.2994304 211.30911825 217.28789057 198.55093765 217.28463173 C197.75724834 217.28442551 196.96355904 217.28421929 196.14581854 217.28400682 C192.1149624 217.2829918 188.08410626 217.28208766 184.05325009 217.2812262 C155.51335155 217.27492736 126.97347814 217.254722 98.43359375 217.22631836 C70.7099623 217.19875895 42.98633772 217.1775111 15.26269531 217.16479492 C14.40791654 217.16440034 13.55313776 217.16400576 12.6724566 217.16359923 C4.08830469 217.15964362 -4.49584727 217.15581619 -13.07999928 217.15208265 C-30.56642526 217.1444743 -48.05285079 217.13601055 -65.53927612 217.12702942 C-66.7452345 217.12641161 -66.7452345 217.12641161 -67.97555568 217.12578133 C-121.65038101 217.09818601 -175.32519202 217.05058874 -229 217 C-229 216.67 -229 216.34 -229 216 C-106.57 215.67 15.86 215.34 142 215 C138.92993936 209.41690257 138.92993936 209.41690257 135.265625 204.60546875 C134.77827881 204.04786865 134.29093262 203.49026855 133.78881836 202.91577148 C133.2810083 202.34544189 132.77319824 201.7751123 132.25 201.1875 C131.17189771 199.95424225 130.09507706 198.71986294 129.01953125 197.484375 C128.49955566 196.88818359 127.97958008 196.29199219 127.44384766 195.67773438 C125.5494006 193.47640868 123.73662822 191.21714073 121.9375 188.9375 C118.88790427 185.07805312 115.74900597 181.30866474 112.5625 177.5625 C108.49025536 172.7733793 104.47518265 167.9438288 100.50390625 163.0703125 C92.69208052 153.49138111 84.84027163 143.94770048 76.83251953 134.53173828 C73.26667979 130.33314325 69.78025391 126.07412002 66.3046875 121.80078125 C63.77966925 118.73224213 61.20515231 115.70960188 58.625 112.6875 C54.84207508 108.25148397 51.19467263 103.73399357 47.625 99.125 C43.17175887 93.38266275 38.49453817 87.8735124 33.70678711 82.40820312 C29.71367751 77.8460142 25.85852893 73.18867507 22.04296875 68.4765625 C20.08094479 66.09812427 18.06151936 63.79237713 16 61.5 C12.33692576 57.42510085 8.87327768 53.21177766 5.421875 48.95703125 C2.79674188 45.75182839 0.12298247 42.59207449 -2.5625 39.4375 C-7.14859665 34.0425145 -11.64156814 28.58167099 -16 23 C-16.5878125 22.33097656 -17.175625 21.66195313 -17.78125 20.97265625 C-19 19 -19 19 -19.04296875 17.05859375 C-17.48344247 13.98042764 -14.97622294 12.15062855 -12.3125 10.0625 C-11.79494141 9.64548828 -11.27738281 9.22847656 -10.74414062 8.79882812 C-9.70017729 7.9576771 -8.65346224 7.11992967 -7.60400391 6.28564453 C-5.03737126 4.22843182 -2.5209838 2.11278852 0 0 Z " fill="#A4D09D" transform="translate(326,400)"/>
<path d="M0 0 C2.89389142 2.71115208 4.96580643 5.3204262 6.92578125 8.76171875 C7.46710693 9.70257324 8.00843262 10.64342773 8.56616211 11.61279297 C9.14245361 12.62744629 9.71874512 13.64209961 10.3125 14.6875 C11.56885492 16.87193271 12.82671479 19.05550043 14.0859375 21.23828125 C15.05611816 22.92171631 15.05611816 22.92171631 16.04589844 24.63916016 C19.11668707 29.92057899 22.27749484 35.14665046 25.4375 40.375 C32.48819952 52.07347826 39.32940735 63.88584173 46.125 75.73388672 C49.24073489 81.1612697 52.37108262 86.58020992 55.5 92 C56.75007045 94.16662602 58.00007045 96.33329269 59.25 98.5 C60.178125 100.10875 60.178125 100.10875 61.125 101.75 C63 105 64.875 108.25 66.75 111.5 C67.36963623 112.57403076 67.98927246 113.64806152 68.62768555 114.75463867 C69.86875254 116.90583224 71.10980093 119.05703655 72.35083008 121.20825195 C75.26498344 126.25962999 78.17931818 131.3109031 81.09432983 136.36178589 C82.12673478 138.15066918 83.15907956 139.93958717 84.19140625 141.72851562 C85.48685948 143.97337636 86.7824257 146.2181719 88.078125 148.46289062 C89.22157606 150.44445361 90.36286695 152.42726552 91.50146484 154.41162109 C92.43414739 156.02261822 93.3801191 157.62608662 94.34619141 159.21728516 C95.28694786 160.77904545 96.15417819 162.3848519 97 164 C96.67 164.66 96.34 165.32 96 166 C23.95019531 141.98339844 23.95019531 141.98339844 21.92871094 141.30932617 C20.62421921 140.87465617 19.31953684 140.4405578 18.01464844 140.00708008 C14.37303826 138.79641889 10.73676636 137.57142413 7.10449219 136.33300781 C5.87386551 135.91603134 5.87386551 135.91603134 4.61837769 135.4906311 C3.02527014 134.95066392 1.43335088 134.40717456 -0.15719604 133.85971069 C-3.21935699 132.82526814 -5.74442039 132 -9 132 C-9 131.34 -9 130.68 -9 130 C-10.258125 129.731875 -11.51625 129.46375 -12.8125 129.1875 C-16.53782249 128.35373735 -20.2426775 127.4602639 -23.9375 126.5 C-24.85402344 126.2628125 -25.77054688 126.025625 -26.71484375 125.78125 C-29 125 -29 125 -31 123 C-32.66397058 122.6534588 -34.33116595 122.32230701 -36 122 C-38.89486745 120.82485579 -41.72884804 119.5437563 -44.57421875 118.25390625 C-47.39081587 117.2229739 -49.79156132 116.6174134 -52.71484375 116.09375 C-58.38520923 115.03705093 -63.53426372 113.07608996 -68.875 110.9375 C-70.704956 110.21548524 -72.53565757 109.49535657 -74.3671875 108.77734375 C-75.16237793 108.46015381 -75.95756836 108.14296387 -76.77685547 107.81616211 C-78.83751808 107.05965045 -80.86136627 106.48627513 -83 106 C-82.505 104.515 -82.505 104.515 -82 103 C-86.62 100.69 -91.24 98.38 -96 96 C-96 95.34 -96 94.68 -96 94 C-96.85489014 93.73517822 -97.70978027 93.47035645 -98.59057617 93.19750977 C-102.07504445 91.97364175 -105.25086327 90.49587095 -108.55078125 88.83984375 C-109.16232559 88.53402374 -109.77386993 88.22820374 -110.40394592 87.91311646 C-112.37560224 86.9254388 -114.34413753 85.9317236 -116.3125 84.9375 C-117.67587531 84.25238606 -119.03931967 83.5674095 -120.40283203 82.88256836 C-128.09472687 79.01158896 -135.75479392 75.08795804 -143.33740234 71.00610352 C-147.30011444 68.87674134 -151.30250569 66.85938995 -155.34814453 64.89233398 C-162.3604233 61.47796548 -168.7909741 57.77617377 -175 53 C-174.67 52.01 -174.34 51.02 -174 50 C-171.27839851 48.97966237 -168.66811821 48.1595649 -165.87109375 47.40625 C-165.04803238 47.17345337 -164.22497101 46.94065674 -163.37696838 46.70080566 C-160.73362995 45.95537164 -158.08594966 45.22704424 -155.4375 44.5 C-152.81501116 43.76988212 -150.19357647 43.03619346 -147.57301331 42.29919434 C-145.94146226 41.84144716 -144.30865814 41.38813434 -142.67442322 40.94006348 C-138.92072567 39.89710753 -135.25978447 38.76312996 -131.61816406 37.37475586 C-128.40310206 36.15316246 -125.70089801 35.49269604 -122.3125 35.0625 C-118.08077303 34.43226509 -114.14775916 33.51316506 -110.078125 32.19921875 C-103.23773128 30.04768282 -96.3486895 28.12703054 -89.42163086 26.28027344 C-87.406547 25.74172759 -85.39373433 25.19517425 -83.38085938 24.6484375 C-82.0860673 24.30159839 -80.79115005 23.9552262 -79.49609375 23.609375 C-78.34294678 23.29967773 -77.1897998 22.98998047 -76.00170898 22.67089844 C-73 22 -73 22 -69 22 C-69 21.34 -69 20.68 -69 20 C-64.05 19.34 -59.1 18.68 -54 18 C-54 17.34 -54 16.68 -54 16 C-53.33823257 15.81429947 -52.67646515 15.62859894 -51.99464417 15.43727112 C-45.13227003 13.51090217 -38.2712023 11.57993409 -31.41088867 9.64624023 C-28.8474219 8.92434535 -26.28361982 8.20364009 -23.71948242 7.48413086 C-20.04257677 6.45215406 -16.3668822 5.41596183 -12.69140625 4.37890625 C-11.53725723 4.05596085 -10.38310822 3.73301544 -9.19398499 3.40028381 C-8.13296066 3.10004807 -7.07193634 2.79981232 -5.97875977 2.49047852 C-5.03944107 2.22622574 -4.10012238 1.96197296 -3.13233948 1.68971252 C-1.03985476 1.19157886 -1.03985476 1.19157886 0 0 Z " fill="#FDB193" transform="translate(541,328)"/>
<path d="M0 0 C2.77860762 2.62149613 4.86356397 5.12804148 6.77734375 8.4296875 C7.5367627 9.72821655 7.5367627 9.72821655 8.31152344 11.05297852 C8.8480957 11.98424561 9.38466797 12.9155127 9.9375 13.875 C11.10789961 15.88161151 12.27847724 17.8881192 13.44921875 19.89453125 C14.0426709 20.91627441 14.63612305 21.93801758 15.24755859 22.99072266 C17.89052631 27.52920413 20.57151844 32.04492315 23.25 36.5625 C26.90633831 42.7428912 30.54886555 48.93121336 34.17578125 55.12890625 C34.53445282 55.74179504 34.89312439 56.35468384 35.26266479 56.98614502 C35.99469258 58.23707935 36.72671771 59.48801523 37.45874023 60.73895264 C43.1406867 70.44796766 48.85078841 80.13778481 54.6574707 89.77294922 C60.5028494 99.47698884 66.24912755 109.2397559 72 119 C69.70289611 122.44565584 69.05783093 122.56676006 65.23071289 123.62573242 C64.23950943 123.90579636 63.24830597 124.18586029 62.22706604 124.47441101 C61.15311081 124.76516006 60.07915558 125.05590912 58.97265625 125.35546875 C57.87279892 125.66196854 56.77294159 125.96846832 55.63975525 126.28425598 C53.31183731 126.93071813 50.98240364 127.57174288 48.65161133 128.20776367 C45.07753347 129.18339624 41.50824085 130.17513184 37.93945312 131.16992188 C35.67994979 131.79521937 33.42019227 132.4195993 31.16015625 133.04296875 C29.55225975 133.48820137 29.55225975 133.48820137 27.91188049 133.94242859 C26.91752487 134.21303604 25.92316925 134.48364349 24.89868164 134.76245117 C23.58535606 135.12194099 23.58535606 135.12194099 22.24549866 135.48869324 C20 136 20 136 17 136 C17 136.66 17 137.32 17 138 C11.75614911 139.7479503 7.52677733 140.19392201 2 140 C2 140.66 2 141.32 2 142 C0.58859741 142.36967896 0.58859741 142.36967896 -0.85131836 142.74682617 C-5.21420914 143.89056773 -9.57599017 145.03850492 -13.9375 146.1875 C-14.71909485 146.39319611 -15.5006897 146.59889221 -16.30596924 146.81082153 C-24.86691336 149.06658025 -33.41033882 151.33883566 -41.875 153.9375 C-47.26354014 155.57410207 -52.50113458 156.65205941 -58.0690918 157.44726562 C-60.89472228 157.98014588 -63.31411576 158.76302032 -65.98828125 159.8046875 C-72.50232109 162.2392221 -79.12480364 164.16686133 -85.8125 166.0625 C-86.98103516 166.40087891 -88.14957031 166.73925781 -89.35351562 167.08789062 C-96.46028524 169.11447634 -103.57109759 170.87120368 -110.81884766 172.31933594 C-113.9195145 172.93321925 -113.9195145 172.93321925 -116.56396484 173.79394531 C-120.95791062 175.1331796 -123.36556457 175.21602799 -127.52734375 173.11328125 C-129.01455819 172.20727705 -130.48476856 171.2728238 -131.9375 170.3125 C-132.69095703 169.85166016 -133.44441406 169.39082031 -134.22070312 168.91601562 C-137.63205758 166.78124681 -139.72948898 165.40576653 -142 162 C-123.98918937 141.85154266 -123.98918937 141.85154266 -116.8125 134.875 C-112.89900373 131.04303491 -109.54520565 126.82750266 -106.17578125 122.515625 C-104 120 -104 120 -101.51171875 118.04296875 C-98.59629605 115.67163738 -96.68567333 113.11397703 -94.5 110.0625 C-91.58289417 106.00012199 -88.56104187 102.50513854 -85 99 C-83.5393636 97.26926387 -82.10193705 95.51869276 -80.6875 93.75 C-77.18459604 89.42082965 -73.58660142 85.21532193 -69.85546875 81.08203125 C-68.06299871 79.07069118 -66.34260707 77.0127686 -64.625 74.9375 C-63.75875 73.968125 -62.8925 72.99875 -62 72 C-61.34 72 -60.68 72 -60 72 C-59.62875 70.824375 -59.62875 70.824375 -59.25 69.625 C-57.79075497 66.56058543 -56.94985044 66.38274239 -54 65 C-52.94978897 63.15028304 -52.94978897 63.15028304 -52 61 C-50 58.25 -50 58.25 -48 56 C-47.34 56 -46.68 56 -46 56 C-46 55.34 -46 54.68 -46 54 C-45.34 54 -44.68 54 -44 54 C-43.5359375 53.071875 -43.5359375 53.071875 -43.0625 52.125 C-42.375 50.75 -41.6875 49.375 -41 48 C-40.34 48 -39.68 48 -39 48 C-38.7525 47.43796875 -38.505 46.8759375 -38.25 46.296875 C-36.78725133 43.60907431 -35.03195127 41.53594518 -33 39.25 C-32.29875 38.45078125 -31.5975 37.6515625 -30.875 36.828125 C-29 35 -29 35 -27 35 C-26.73968994 34.41750488 -26.47937988 33.83500977 -26.21118164 33.23486328 C-24.91832105 30.84928662 -23.49757373 29.19669733 -21.62109375 27.2421875 C-20.95078125 26.53860107 -20.28046875 25.83501465 -19.58984375 25.11010742 C-18.87957031 24.37252197 -18.16929687 23.63493652 -17.4375 22.875 C-15.98777104 21.34814052 -14.53854973 19.82079888 -13.08984375 18.29296875 C-11.18473643 16.29157758 -9.27875682 14.29109783 -7.36767578 12.29541016 C-6.06928772 10.93479192 -4.78390559 9.56179254 -3.5 8.1875 C-2.8090625 7.45917969 -2.118125 6.73085937 -1.40625 5.98046875 C0.38596933 3.86125144 0.38596933 3.86125144 0 0 Z " fill="#ED97E7" transform="translate(470,208)"/>
<path d="M0 0 C3.42554225 1.43249948 6.44748313 3.3264822 9.515625 5.390625 C10.40797852 5.9774707 10.40797852 5.9774707 11.31835938 6.57617188 C13.07722755 7.73529483 14.82842141 8.90522503 16.578125 10.078125 C17.7251086 10.84267573 18.87223359 11.60701439 20.01953125 12.37109375 C20.86386719 12.93441406 21.70820313 13.49773437 22.578125 14.078125 C21.918125 14.408125 21.258125 14.738125 20.578125 15.078125 C19.4025 14.3046875 19.4025 14.3046875 18.203125 13.515625 C17.336875 13.04125 16.470625 12.566875 15.578125 12.078125 C11.88648963 13.36664013 9.10830589 15.97525552 6.140625 18.453125 C0.60137073 23.0601821 0.60137073 23.0601821 -2.14453125 25.1796875 C-4.60935278 27.05175454 -4.60935278 27.05175454 -6.421875 30.078125 C-7.74821646 30.75859584 -9.08289257 31.42287828 -10.421875 32.078125 C-12.20032415 33.4589085 -13.94785782 34.87995057 -15.671875 36.328125 C-18.81528977 38.93728351 -21.9482568 41.52579795 -25.234375 43.953125 C-30.77758445 48.05126152 -36.16287598 52.35422609 -41.57519531 56.62255859 C-43.94327137 58.48909343 -46.31418493 60.35199799 -48.68554688 62.21435547 C-49.84597461 63.12579378 -51.00612962 64.03757943 -52.16601562 64.94970703 C-55.10381598 67.2597372 -58.04483835 69.5654435 -60.9921875 71.86328125 C-67.54472297 76.97885719 -73.98943732 82.19030077 -80.3515625 87.54296875 C-83.701171 90.30873964 -87.11524618 92.97810652 -90.546875 95.640625 C-95.58217218 99.55400102 -100.36668089 103.64499708 -105.0625 107.96484375 C-108.23052121 110.80242566 -111.56389153 113.4036097 -114.90625 116.03125 C-118.40463647 118.87776322 -121.70294525 121.9242241 -125 125 C-127.6672486 127.28867138 -130.49818855 129.13023745 -133.421875 131.078125 C-135.45030313 132.74240712 -137.44376942 134.41948452 -139.421875 136.140625 C-144.05704287 140.12478236 -148.77574974 143.96258371 -153.609375 147.703125 C-158.68106772 151.63400027 -163.47984492 155.76136073 -168.20703125 160.10546875 C-170.75086996 162.3711452 -173.42038791 164.36068681 -176.171875 166.36328125 C-179.70450653 169.05568618 -183.05716145 171.95972059 -186.43505859 174.84155273 C-189.87656708 177.77579257 -193.34682056 180.66620768 -196.859375 183.515625 C-201.26451482 187.10331619 -205.60540141 190.75972789 -209.921875 194.453125 C-210.82184204 195.22160767 -210.82184204 195.22160767 -211.73999023 196.00561523 C-214.93534678 198.73003257 -214.93534678 198.73003257 -217.91601562 201.68212891 C-219.421875 203.078125 -219.421875 203.078125 -222.484375 204.015625 C-225.51159206 204.75490286 -225.51159206 204.75490286 -226.546875 207.015625 C-226.835625 207.69625 -227.124375 208.376875 -227.421875 209.078125 C-228.75036191 210.08455448 -230.08337829 211.08504679 -231.421875 212.078125 C-231.751875 213.068125 -232.081875 214.058125 -232.421875 215.078125 C-233.081875 215.078125 -233.741875 215.078125 -234.421875 215.078125 C-234.75 212.40625 -234.75 212.40625 -234.421875 209.078125 C-232.70163481 207.01627683 -231.20642853 205.51380877 -229.171875 203.828125 C-228.63626953 203.36067871 -228.10066406 202.89323242 -227.54882812 202.41162109 C-224.76872159 200.00214136 -221.92812224 197.66547814 -219.09375 195.3203125 C-218.56168945 194.87977539 -218.02962891 194.43923828 -217.48144531 193.98535156 C-216.00154612 192.76862793 -214.50891467 191.56743914 -213.015625 190.3671875 C-210.46039919 188.11212376 -208.5149841 185.75626459 -206.421875 183.078125 C-205.2242607 181.96000972 -203.99500134 180.87468271 -202.734375 179.828125 C-199.70442698 177.24540178 -196.88443449 174.55775609 -194.109375 171.703125 C-189.98608315 167.51574053 -185.56024969 163.86480169 -180.9765625 160.1953125 C-178.21969469 157.91056884 -175.77259811 155.46148976 -173.29296875 152.88671875 C-170.97380912 150.64502583 -168.49979298 148.65917029 -165.984375 146.640625 C-161.81862499 143.28867588 -158.01743312 139.78641011 -154.29296875 135.95703125 C-151.91120334 133.5653211 -149.37863367 131.3907535 -146.8203125 129.19140625 C-143.63041233 126.38076131 -140.52914816 123.47950191 -137.421875 120.578125 C-133.14271053 116.58611129 -128.84121737 112.64021274 -124.41015625 108.81640625 C-121.88134572 106.60556011 -119.40314936 104.34216057 -116.921875 102.078125 C-113.15836979 98.64547739 -109.36058149 95.2625749 -105.515625 91.921875 C-102.95768473 89.66936043 -100.4400852 87.37495408 -97.921875 85.078125 C-94.15836979 81.64547739 -90.36058149 78.2625749 -86.515625 74.921875 C-83.95768473 72.66936043 -81.4400852 70.37495408 -78.921875 68.078125 C-75.13524502 64.62484347 -71.3171118 61.21713449 -67.44921875 57.85546875 C-64.21786022 55.02258218 -61.03719419 52.13368633 -57.84765625 49.25390625 C-55.78484712 47.40368937 -53.7047513 45.57867691 -51.609375 43.765625 C-48.02538589 40.64502034 -44.53337647 37.4315348 -41.046875 34.203125 C-33.23824827 26.97885543 -25.47309349 19.81864746 -17.07421875 13.27734375 C-15.05475684 11.60288564 -13.17968526 9.91901343 -11.30078125 8.09765625 C-10.7701709 7.5876709 -10.23956055 7.07768555 -9.69287109 6.55224609 C-8.65582372 5.54589763 -7.63078174 4.52699242 -6.61962891 3.49462891 C-4.4336182 1.37997387 -3.1087193 0.10028127 0 0 Z " fill="#8A92E7" transform="translate(312.421875,388.921875)"/>
<path d="M0 0 C0.33 0 0.66 0 1 0 C0.38362568 6.38846302 -0.62838686 12.54581823 -2 18.8125 C-2.26683594 20.06063477 -2.26683594 20.06063477 -2.5390625 21.33398438 C-3.01708642 23.55822253 -3.49816489 25.78101376 -4 28 C-4.13946045 28.71849121 -4.2789209 29.43698242 -4.42260742 30.17724609 C-5.32026406 33.01103234 -7.46369995 33.55820288 -10 35 C-12.10791325 36.86479875 -14.15634019 38.74367582 -16.1875 40.6875 C-19.97223193 44.25091502 -23.75636582 47.69461415 -27.875 50.875 C-33.76369183 55.46471569 -39.10116725 60.62493552 -44.52734375 65.7421875 C-47.61381276 68.65048046 -50.76611991 71.46430798 -53.98046875 74.23046875 C-56.6948628 76.60884497 -59.34569125 79.05512354 -62 81.5 C-65.95581801 85.1417571 -69.94561843 88.7349969 -74.0078125 92.2578125 C-76.36020635 94.31500399 -78.68034966 96.40596915 -81 98.5 C-83.95869751 101.17048344 -86.92926472 103.82298058 -89.9375 106.4375 C-93.16559512 109.24822525 -96.33738443 112.115799 -99.5 115 C-103.28662998 118.45328153 -107.1047632 121.86099051 -110.97265625 125.22265625 C-114.20263076 128.05432947 -117.38190656 130.94202507 -120.5703125 133.8203125 C-122.6560618 135.69145094 -124.75817628 137.53924831 -126.875 139.375 C-131.28749974 143.21583986 -135.5786253 147.18677337 -139.875 151.15625 C-142.17903033 153.2715607 -144.52425684 155.33302514 -146.88671875 157.3828125 C-150.9675406 160.93935873 -154.89202534 164.64370288 -158.8125 168.375 C-164.26879489 173.53723546 -169.81533693 178.41384932 -175.69140625 183.09375 C-178.37241265 185.30750825 -180.74315891 187.71453135 -183.15234375 190.21484375 C-185.34098852 192.32945402 -187.67494495 194.17539317 -190.0625 196.0625 C-195.48910872 200.40829038 -200.32940593 205.20140088 -205.14086914 210.21508789 C-208.21718178 213.38356141 -211.03428025 215.93544927 -215 218 C-213.63696103 214.84456479 -212.1817387 213.06811867 -209.5 210.9375 C-207.06335088 208.99127814 -205.77737879 207.66606818 -204 205 C-203.34 205 -202.68 205 -202 205 C-201.59974609 204.12214844 -201.59974609 204.12214844 -201.19140625 203.2265625 C-199.97468941 200.95269824 -198.65950677 199.28834086 -196.9375 197.375 C-196.31230469 196.67632813 -195.68710938 195.97765625 -195.04296875 195.2578125 C-194.36878906 194.51273438 -193.69460937 193.76765625 -193 193 C-192.31550781 192.23429688 -191.63101563 191.46859375 -190.92578125 190.6796875 C-188.62609321 188.11163371 -186.31375681 185.55538331 -184 183 C-183.53980469 182.48791992 -183.07960937 181.97583984 -182.60546875 181.44824219 C-181.15732499 179.83713346 -179.70411029 178.23072368 -178.25 176.625 C-177.36828125 175.64789062 -176.4865625 174.67078125 -175.578125 173.6640625 C-173 171 -173 171 -170.609375 169.1484375 C-167.69415762 166.74818367 -165.42538121 164.09663064 -162.9765625 161.234375 C-158.58459831 156.26954592 -153.74945951 151.71392302 -149.02734375 147.06640625 C-148.22425781 146.27105469 -147.42117187 145.47570312 -146.59375 144.65625 C-145.52157227 143.60147461 -145.52157227 143.60147461 -144.42773438 142.52539062 C-142.58227315 140.60569524 -140.86676899 138.67748674 -139.14697266 136.65136719 C-133.14121558 129.74205011 -126.52961541 123.38624086 -120.0546875 116.921875 C-118.59678807 115.46330096 -117.13903703 114.00457858 -115.681427 112.54571533 C-112.63868604 109.50150622 -109.59415927 106.45909767 -106.54833984 103.41796875 C-102.65009121 99.52543213 -98.75637008 95.62840235 -94.86396599 91.73002243 C-91.85974854 88.72218853 -88.85314985 85.716744 -85.84582901 82.71201324 C-84.40901478 81.27586448 -82.97293857 79.83897695 -81.53762436 78.40132904 C-79.53254168 76.39370036 -77.52427028 74.38931586 -75.51513672 72.38574219 C-74.92696167 71.79554291 -74.33878662 71.20534363 -73.73278809 70.59725952 C-70.62931883 67.50964134 -67.45839801 64.69584379 -64 62 C-62.31115758 60.35580815 -60.64457728 58.6884671 -59 57 C-57.39719206 55.37365981 -55.79301339 53.74866944 -54.1875 52.125 C-53.00220703 50.92230469 -53.00220703 50.92230469 -51.79296875 49.6953125 C-49.68083882 47.65703327 -47.55749232 45.74218874 -45.33203125 43.8359375 C-40.12579117 39.32063959 -35.33567938 34.40505785 -30.5 29.5 C-25.03120403 23.95274211 -19.58337549 18.47047224 -13.64331055 13.42456055 C-12.13914395 12.12062174 -10.72011741 10.72011741 -9.3125 9.3125 C-6.99316372 6.99316372 -4.64953773 4.93344645 -2 3 C-1.34 3 -0.68 3 0 3 C0 2.01 0 1.02 0 0 Z " fill="#E2D1FA" transform="translate(318,357)"/>
<path d="M0 0 C0.495 1.485 0.495 1.485 1 3 C3.16357709 4.5214058 5.28012541 5.8677751 7.5625 7.1875 C8.5680896 7.77905884 8.5680896 7.77905884 9.59399414 8.38256836 C16.25834785 12.24862135 23.11856612 15.68111998 30.04541016 19.046875 C33.08373373 20.52846571 36.10378182 22.04644909 39.125 23.5625 C40.41916863 24.20983978 41.71344817 24.85695786 43.0078125 25.50390625 C54.671875 31.3359375 66.3359375 37.16796875 78 43 C78 43.66 78 44.32 78 45 C79.175625 45.3403125 79.175625 45.3403125 80.375 45.6875 C85.12301625 47.40660933 89.52102552 49.68084721 94 52 C90.63636289 54.24242474 89.31321915 54.14804794 85.43359375 53.54296875 C77.98382755 51.88082188 70.89962893 48.99234175 63.85546875 46.10742188 C60.75391253 44.90456115 57.62631688 43.85568773 54.46484375 42.8203125 C44.72622048 39.60513725 35.05395568 36.20211884 25.375 32.8125 C21.56537901 31.47968178 17.75545193 30.14774165 13.9453125 28.81640625 C13.00901001 28.489216 12.07270752 28.16202576 11.10803223 27.82492065 C5.40808117 25.83503126 -0.29662109 23.85973089 -6.0078125 21.90234375 C-7.01885544 21.55554314 -7.01885544 21.55554314 -8.05032349 21.20173645 C-11.11776442 20.15011367 -14.18624141 19.10168035 -17.25634766 18.05786133 C-22.60591821 16.22706366 -27.84550537 14.32688615 -33 12 C-32 9 -32 9 -30.39282227 8.06445312 C-29.70760498 7.80599609 -29.0223877 7.54753906 -28.31640625 7.28125 C-27.17872803 6.84425781 -27.17872803 6.84425781 -26.01806641 6.3984375 C-25.20772949 6.10195313 -24.39739258 5.80546875 -23.5625 5.5 C-22.74442871 5.19320313 -21.92635742 4.88640625 -21.08349609 4.5703125 C-4.13837668 -1.71984485 -4.13837668 -1.71984485 0 0 Z " fill="#FDC9CD" transform="translate(367,379)"/>
<path d="M0 0 C3.48174753 1.29791362 6.51615907 2.81985682 9.64453125 4.8203125 C10.90620117 5.62275391 10.90620117 5.62275391 12.19335938 6.44140625 C13.05767578 6.99699219 13.92199219 7.55257813 14.8125 8.125 C15.69615234 8.68832031 16.57980469 9.25164062 17.49023438 9.83203125 C19.66257413 11.21763174 21.83237083 12.60704634 24 14 C23.01 14.495 23.01 14.495 22 15 C21.21625 14.484375 20.4325 13.96875 19.625 13.4375 C18.75875 12.963125 17.8925 12.48875 17 12 C13.30836463 13.28851513 10.53018089 15.89713052 7.5625 18.375 C2.02324573 22.9820571 2.02324573 22.9820571 -0.72265625 25.1015625 C-3.18747778 26.97362954 -3.18747778 26.97362954 -5 30 C-6.45456274 27.09087452 -5.53991078 25.32310816 -4.78515625 22.1875 C-4.51123047 21.02992188 -4.23730469 19.87234375 -3.95507812 18.6796875 C-3.66052734 17.46539062 -3.36597656 16.25109375 -3.0625 15 C-2.48907851 12.60459849 -1.91737435 10.20878502 -1.34765625 7.8125 C-1.08992432 6.74644531 -0.83219238 5.68039062 -0.56665039 4.58203125 C0.07145262 2.11499467 0.07145262 2.11499467 0 0 Z " fill="#9192D2" transform="translate(311,389)"/>
<path d="M0 0 C0.66 0.66 1.32 1.32 2 2 C1.67626953 4.61376953 1.67626953 4.61376953 0.8828125 7.8828125 C0.60566406 9.04941406 0.32851563 10.21601563 0.04296875 11.41796875 C-0.25996094 12.64128906 -0.56289063 13.86460937 -0.875 15.125 C-1.17019531 16.35605469 -1.46539062 17.58710938 -1.76953125 18.85546875 C-2.50267843 21.90630703 -3.24658104 24.95411599 -4 28 C-4.78761719 27.20980469 -5.57523437 26.41960937 -6.38671875 25.60546875 C-7.84218629 24.15435238 -9.3082621 22.71299735 -10.8125 21.3125 C-12 20 -12 20 -12 18 C-12.66 18 -13.32 18 -14 18 C-14.71875 16.2421875 -14.71875 16.2421875 -15 14 C-13.59375 12.0703125 -13.59375 12.0703125 -11.5 10.125 C-10.7678125 9.43664062 -10.035625 8.74828125 -9.28125 8.0390625 C-6.22595807 5.30813375 -3.14832015 2.62360013 0 0 Z " fill="#9B99E4" transform="translate(310,389)"/>
<path d="M0 0 C1.5625 1.25 1.5625 1.25 3 3 C2.62359497 6.53326178 1.15344036 8.19348806 -1.3515625 10.609375 C-2.03863281 11.28226563 -2.72570312 11.95515625 -3.43359375 12.6484375 C-4.15675781 13.34195313 -4.87992187 14.03546875 -5.625 14.75 C-10.41263343 19.38774436 -15.00754287 24.06776968 -19.35205078 29.125 C-21.81369122 31.92579979 -24.45475608 34.52484123 -27.125 37.125 C-30.17158232 40.09285926 -33.08140452 43.04364539 -35.7421875 46.3671875 C-36.48726563 47.23601562 -37.23234375 48.10484375 -38 49 C-38.66 49 -39.32 49 -40 49 C-40.2475 49.73992187 -40.495 50.47984375 -40.75 51.2421875 C-42.1188771 54.2622726 -43.59396859 55.86934555 -46 58.125 C-48.39018244 60.38337091 -50.16160745 62.24241118 -52 65 C-52.66 65 -53.32 65 -54 65 C-52.4722133 61.56247993 -50.49818944 58.81046312 -48 56 C-47.34 56 -46.68 56 -46 56 C-46 55.34 -46 54.68 -46 54 C-45.34 54 -44.68 54 -44 54 C-43.690625 53.38125 -43.38125 52.7625 -43.0625 52.125 C-42.375 50.75 -41.6875 49.375 -41 48 C-40.34 48 -39.68 48 -39 48 C-38.7525 47.43796875 -38.505 46.8759375 -38.25 46.296875 C-36.78725133 43.60907431 -35.03195127 41.53594518 -33 39.25 C-31.948125 38.05117187 -31.948125 38.05117187 -30.875 36.828125 C-29 35 -29 35 -27 35 C-26.73968994 34.41750488 -26.47937988 33.83500977 -26.21118164 33.23486328 C-24.91832105 30.84928662 -23.49757373 29.19669733 -21.62109375 27.2421875 C-20.615625 26.18680786 -20.615625 26.18680786 -19.58984375 25.11010742 C-18.87957031 24.37252197 -18.16929687 23.63493652 -17.4375 22.875 C-15.98777104 21.34814052 -14.53854973 19.82079888 -13.08984375 18.29296875 C-11.18473643 16.29157758 -9.27875682 14.29109783 -7.36767578 12.29541016 C-6.06928772 10.93479192 -4.78390559 9.56179254 -3.5 8.1875 C-2.8090625 7.45917969 -2.118125 6.73085937 -1.40625 5.98046875 C0.38596933 3.86125144 0.38596933 3.86125144 0 0 Z " fill="#C69CF7" transform="translate(470,208)"/>
<path d="M0 0 C1.5625 1.25 1.5625 1.25 3 3 C2.8425103 7.40971151 -0.57394911 9.90695908 -3.5625 12.75 C-4.08263672 13.25660156 -4.60277344 13.76320312 -5.13867188 14.28515625 C-6.41910084 15.53034405 -7.70867554 16.76611502 -9 18 C-9.33 17.01 -9.66 16.02 -10 15 C-9.278125 14.25234375 -8.55625 13.5046875 -7.8125 12.734375 C-6.87447992 11.74007372 -5.93700833 10.74525479 -5 9.75 C-4.52304687 9.25886719 -4.04609375 8.76773438 -3.5546875 8.26171875 C-0.67574985 5.17714269 0 4.39802077 0 0 Z " fill="#BB90F8" transform="translate(470,208)"/>
<path d="M0 0 C0.33 0.99 0.66 1.98 1 3 C-0.3121609 5.5236142 -1.66460265 7.85921491 -3.1875 10.25 C-3.99419886 11.54643392 -4.80019203 12.84330724 -5.60546875 14.140625 C-6.00556152 14.77677734 -6.4056543 15.41292969 -6.81787109 16.06835938 C-7.99487259 17.99162162 -9.0887986 19.94664342 -10.17578125 21.921875 C-12 25 -12 25 -14 26 C-12.40193652 19.91117584 -9.1388717 14.9335245 -5.875 9.625 C-5.31167969 8.69816406 -4.74835938 7.77132812 -4.16796875 6.81640625 C-2.78393957 4.54096845 -1.39451078 2.2690237 0 0 Z " fill="#84C9F5" transform="translate(344,127)"/>
<path d="M0 0 C1.32 0.66 2.64 1.32 4 2 C2.47005208 3.20442708 0.94010417 4.40885417 -0.58984375 5.61328125 C-2.27155077 7.05683091 -2.27155077 7.05683091 -3 10 C-3.66 10 -4.32 10 -5 10 C-5.3125 7.25 -5.3125 7.25 -5 4 C-2.5 1.625 -2.5 1.625 0 0 Z " fill="#85A8F8" transform="translate(83,594)"/>
<path d="M0 0 C0.66 0.33 1.32 0.66 2 1 C-6.33395005 12.47826087 -6.33395005 12.47826087 -11 17 C-11.66 17 -12.32 17 -13 17 C-11.4722133 13.56247993 -9.49818944 10.81046312 -7 8 C-6.34 8 -5.68 8 -5 8 C-5 7.34 -5 6.68 -5 6 C-4.34 6 -3.68 6 -3 6 C-2.690625 5.38125 -2.38125 4.7625 -2.0625 4.125 C-1.375 2.75 -0.6875 1.375 0 0 Z " fill="#D3B0F8" transform="translate(429,256)"/>
<path d="M0 0 C1 3 1 3 0.43359375 4.76171875 C-2.23267426 9.91650357 -5.38209932 14.46556449 -9 19 C-9 15.80971469 -8.57516922 14.88744656 -7.03125 12.20703125 C-6.62519531 11.49482422 -6.21914062 10.78261719 -5.80078125 10.04882812 C-5.37152344 9.31083984 -4.94226563 8.57285156 -4.5 7.8125 C-4.07074219 7.06291016 -3.64148438 6.31332031 -3.19921875 5.54101562 C-2.13853779 3.69071661 -1.07001077 1.84491937 0 0 Z " fill="#E3BFFA" transform="translate(180,405)"/>
<path d="M0 0 C0.66 0.33 1.32 0.66 2 1 C-7.14494876 13.0966325 -7.14494876 13.0966325 -13 17 C-11.60846256 12.57238086 -9.47928514 10.0443745 -6 7 C-5.34 7 -4.68 7 -4 7 C-3.71125 6.21625 -3.4225 5.4325 -3.125 4.625 C-2 2 -2 2 0 0 Z " fill="#DAB6F6" transform="translate(414,273)"/>
<path d="M0 0 C-2.27960819 1.1398041 -4.55569324 2.25368605 -6.875 3.3125 C-10.38912701 5.21012858 -13.01028204 7.36620085 -16 10 C-15.44817711 6.37373531 -14.26341331 4.95813064 -11.375 2.75 C-7.34102818 -0.14805195 -4.87302324 -0.60912791 0 0 Z " fill="#74CDF5" transform="translate(381,85)"/>
<path d="M0 0 C4.30764815 1.56641751 8.06171464 3.68336156 12 6 C11.01 7.485 11.01 7.485 10 9 C8.3278148 7.88321917 6.66237197 6.75633648 5 5.625 C3.6078125 4.68527344 3.6078125 4.68527344 2.1875 3.7265625 C1.465625 3.15679687 0.74375 2.58703125 0 2 C0 1.34 0 0.68 0 0 Z " fill="#B4B4A9" transform="translate(384,434)"/>
<path d="M0 0 C1 3 1 3 -0.65234375 6.35546875 C-1.40377702 7.63889017 -2.16596501 8.91606134 -2.9375 10.1875 C-3.51661133 11.16879883 -3.51661133 11.16879883 -4.10742188 12.16992188 C-5.06253088 13.78535316 -6.03010066 15.39340525 -7 17 C-7.74609375 15.421875 -7.74609375 15.421875 -8 13 C-6.77369903 10.59958109 -5.54429316 8.47881286 -4.0625 6.25 C-3.67642578 5.64800781 -3.29035156 5.04601562 -2.89257812 4.42578125 C-1.93954585 2.94328661 -0.97121988 1.47064367 0 0 Z " fill="#82CFF6" transform="translate(363,95)"/>
<path d="M0 0 C0.99 0.66 1.98 1.32 3 2 C3 2.66 3 3.32 3 4 C-0.63 3.01 -4.26 2.02 -8 1 C-8 0.34 -8 -0.32 -8 -1 C-4.3286919 -2.22376937 -3.40346492 -1.61664584 0 0 Z " fill="#FDC4A8" transform="translate(466,433)"/>
<path d="M0 0 C3.96 0 7.92 0 12 0 C12 0.33 12 0.66 12 1 C11.05125 1.165 10.1025 1.33 9.125 1.5 C5.91873588 2.62222102 5.91873588 2.62222102 5.15625 4.9140625 C4.67381375 6.92184864 4.32880438 8.96141284 4 11 C3.67 11 3.34 11 3 11 C3.33 7.7 3.66 4.4 4 1 C2.68 0.67 1.36 0.34 0 0 Z " fill="#ADE2FA" transform="translate(377,84)"/>
<path d="M0 0 C0.66 0.33 1.32 0.66 2 1 C-0.64960955 4.63094642 -3.01824456 6.89851796 -7 9 C-5.44499019 5.18315774 -2.96404505 2.80804268 0 0 Z " fill="#F2D7F9" transform="translate(371,321)"/>
<path d="M0 0 C0.33 0.99 0.66 1.98 1 3 C-1.31 4.98 -3.62 6.96 -6 9 C-6 6 -6 6 -4.6875 4.39453125 C-4.130625 3.87246094 -3.57375 3.35039062 -3 2.8125 C-2.443125 2.28269531 -1.88625 1.75289062 -1.3125 1.20703125 C-0.6628125 0.60955078 -0.6628125 0.60955078 0 0 Z " fill="#BAA3F8" transform="translate(459,224)"/>
<path d="M0 0 C0.66 0.33 1.32 0.66 2 1 C2 1.66 2 2.32 2 3 C0.58622218 3.36552803 -0.83120576 3.71695495 -2.25 4.0625 C-3.03890625 4.25972656 -3.8278125 4.45695312 -4.640625 4.66015625 C-7.10394822 5.01497267 -8.65604132 4.76877544 -11 4 C-10.28972656 3.79503906 -9.57945312 3.59007812 -8.84765625 3.37890625 C-7.92855469 3.10949219 -7.00945313 2.84007812 -6.0625 2.5625 C-4.68771484 2.16224609 -4.68771484 2.16224609 -3.28515625 1.75390625 C-1.0597507 1.20973949 -1.0597507 1.20973949 0 0 Z " fill="#FC97B3" transform="translate(541,328)"/>
</svg>
